<?xml version="1.0" encoding="UTF-8" standalone="no"?>
<svg width="51px" height="51px" viewBox="0 0 51 51" version="1.1" xmlns="http://www.w3.org/2000/svg" xmlns:xlink="http://www.w3.org/1999/xlink">
    <!-- Generator: Sketch 39.1 (31720) - http://www.bohemiancoding.com/sketch -->
    <title>Shape</title>
    <desc>Created with Sketch.</desc>
    <defs></defs>
    <g id="01.00.00-Homepage" stroke="none" stroke-width="1" fill="none" fill-rule="evenodd">
        <g id="D_01.00.00-ServerSideUp_Homepage" transform="translate(-167.000000, -1957.000000)" fill="#9B9B9B">
            <g id="Footer" transform="translate(0.000000, 1860.000000)">
                <g id="Social-Icons" transform="translate(97.000000, 97.000000)">
                    <path d="M95.1422187,0.868 C81.3355373,0.868 70.143,12.0620998 70.143,25.8687813 C70.143,39.6832755 81.3355373,50.8695625 95.1422187,50.8695625 C108.956713,50.8695625 120.143,39.6832755 120.143,25.8687813 C120.143,12.0652249 108.945775,0.868 95.1422187,0.868 L95.1422187,0.868 Z M110.833334,18.2732314 C110.130187,19.4123295 109.173907,20.4545496 107.90668,21.381141 L107.90668,21.9233455 C108.003558,26.8938133 105.530043,33.3487025 99.7783011,36.9956915 C96.8985236,38.8316864 93.6906109,39.7504651 90.1092489,39.7504651 C87.2122834,39.7504651 84.4996986,39.0707563 81.9339935,37.7644655 C81.246472,37.4066418 80.7558317,37.1347583 80.5230119,36.9503776 C80.3605068,36.8191235 80.2886296,36.6722439 80.2886296,36.515989 C80.2886296,36.2300426 80.5230119,35.9940977 80.8120834,35.9940977 C80.9605255,35.9940977 81.2042832,36.0175359 81.5324184,36.0269112 C81.8589911,36.0597247 82.1043113,36.0628498 82.2683789,36.0628498 C84.5012612,36.0628498 86.5356998,35.5050199 88.4076333,34.3377959 C86.1606881,33.8159046 84.3450063,32.1517901 83.6246713,29.9439086 C83.6090458,29.8564059 83.5918578,29.7939039 83.5918578,29.7767159 C83.5918578,29.5142077 83.8199899,29.2751377 84.0840607,29.2751377 C84.1324997,29.2751377 84.2153148,29.298576 84.3121928,29.3079512 C84.4090708,29.332952 84.4746979,29.3407648 84.5075114,29.3407648 C82.5605755,28.1376022 81.3183492,26.0015979 81.3183492,23.7312145 C81.3183492,23.4015167 81.6121084,23.1390085 81.9371186,23.1390085 C82.046497,23.1390085 82.2308777,23.2061981 82.5058863,23.3062012 C82.7996455,23.4374553 82.9449626,23.5343333 82.9949641,23.5343333 C81.9855576,22.3296082 81.4886671,20.9342521 81.4886671,19.3388897 C81.4886671,18.2185422 81.8152398,16.8403741 82.3699446,16.0184735 C82.4808856,15.8465931 82.6105771,15.7497151 82.7933953,15.7497151 C82.9559004,15.7497151 83.119968,15.8231548 83.2168461,15.954409 C84.0449969,16.8747502 84.6372029,17.4841443 85.0090896,17.8247799 C87.6919859,20.259231 91.1280308,21.7342771 94.7062676,22.0405366 C94.6593911,21.8124045 94.6422031,21.5530214 94.6422031,21.2342614 C94.6422031,17.5872725 97.6047957,14.6262424 101.250222,14.6262424 C103.040903,14.6262424 104.570638,15.2450118 105.859741,16.4825505 C106.887898,16.2575434 108.041059,15.7981541 109.278598,15.1481338 C109.367663,15.1153202 109.445791,15.060631 109.542669,15.060631 C109.82549,15.060631 110.072373,15.3043886 110.072373,15.5825223 C110.072373,16.1075387 109.278598,17.4388303 108.778582,18.0232236 C108.933275,17.9825973 109.527043,17.731027 109.980182,17.588835 C110.208315,17.4950821 110.338006,17.4763315 110.37082,17.4763315 C110.664579,17.4763315 110.895836,17.7200891 110.895836,18.0013479 C110.920837,18.1029136 110.886461,18.1982291 110.833334,18.2732314 L110.833334,18.2732314 Z" id="Shape"></path>
                </g>
            </g>
        </g>
    </g>
</svg>