<?xml version="1.0" encoding="UTF-8" standalone="no"?>
<svg width="50px" height="50px" viewBox="0 0 50 50" version="1.1" xmlns="http://www.w3.org/2000/svg" xmlns:xlink="http://www.w3.org/1999/xlink">
    <!-- Generator: Sketch 39.1 (31720) - http://www.bohemiancoding.com/sketch -->
    <title>Shape</title>
    <desc>Created with Sketch.</desc>
    <defs></defs>
    <g id="01.00.00-Homepage" stroke="none" stroke-width="1" fill="none" fill-rule="evenodd">
        <g id="D_01.00.00-ServerSideUp_Homepage" transform="translate(-97.000000, -1957.000000)" fill="#9B9B9B">
            <g id="Footer" transform="translate(0.000000, 1860.000000)">
                <g id="Social-Icons" transform="translate(97.000000, 97.000000)">
                    <path d="M25,0 C11.1921875,0 0,11.1859375 0,25 C0,38.809375 11.1921875,50 25,50 C38.8078125,50 50,38.809375 50,25 C50,11.1859375 38.80625,0 25,0 L25,0 Z M30.8078125,24.9953125 L27.0765625,24.9953125 L27.0765625,38.5078125 L21.4875,38.5078125 L21.4875,24.9953125 L18.6921875,24.9953125 L18.6921875,20.340625 L21.4875,20.340625 L21.4875,17.5421875 C21.4875,13.7328125 23.0640625,11.4734375 27.54375,11.4734375 L31.2859375,11.4734375 L31.2859375,16.128125 L28.9703125,16.128125 C27.2234375,16.128125 27.109375,16.778125 27.109375,17.9859375 L27.1015625,20.31875 L31.3296875,20.31875 L30.8078125,24.9953125 L30.8078125,24.9953125 Z" id="Shape"></path>
                </g>
            </g>
        </g>
    </g>
</svg>