<?xml version="1.0" encoding="UTF-8" standalone="no"?>
<svg width="32px" height="27px" viewBox="0 0 32 27" version="1.1" xmlns="http://www.w3.org/2000/svg" xmlns:xlink="http://www.w3.org/1999/xlink">
    <!-- Generator: Sketch 39.1 (31720) - http://www.bohemiancoding.com/sketch -->
    <title>Shape</title>
    <desc>Created with Sketch.</desc>
    <defs></defs>
    <g id="01.00.01-MobileMenu-Active" stroke="none" stroke-width="1" fill="none" fill-rule="evenodd">
        <g id="M_01.00.01-ServerSideUp_Homepage-MobileMenu-Active" transform="translate(-200.000000, -364.000000)" fill="#9B9B9B">
            <g id="Menu" transform="translate(59.000000, 0.000000)">
                <g id="Social" transform="translate(90.000000, 361.000000)">
                    <path d="M82.918,6.806 C82.184,7.972 81.174,9.056 79.861,10.022 L79.861,10.584 C79.942,15.713 77.371,22.396 71.377,26.174 C68.375,28.07 65.014,29.023 61.277,29.023 C58.254,29.023 55.422,28.335 52.74,26.961 C52.006,26.59 51.511,26.299 51.256,26.107 C51.09,25.967 51,25.818 51,25.648 C51,25.365 51.256,25.111 51.547,25.111 C51.701,25.111 51.955,25.132 52.299,25.144 C52.641,25.174 52.898,25.193 53.07,25.193 C55.382,25.193 57.522,24.601 59.466,23.398 C57.126,22.855 55.237,21.127 54.487,18.84 C54.466,18.76 54.454,18.694 54.454,18.652 C54.454,18.381 54.683,18.131 54.975,18.131 C55.034,18.131 55.118,18.152 55.206,18.162 C55.31,18.183 55.378,18.186 55.411,18.186 C53.381,16.957 52.083,14.74 52.083,12.374 C52.083,12.036 52.395,11.77 52.745,11.77 C52.866,11.77 53.057,11.832 53.349,11.958 C53.632,12.1 53.808,12.182 53.87,12.187 C52.827,10.958 52.298,9.499 52.298,7.866 C52.298,6.71 52.641,5.294 53.236,4.428 C53.345,4.24 53.496,4.157 53.66,4.157 C53.848,4.157 54.004,4.219 54.125,4.366 C54.998,5.304 55.609,5.954 56.002,6.304 C58.799,8.814 62.389,10.349 66.123,10.668 C66.068,10.439 66.051,10.158 66.051,9.838 C66.051,6.067 69.145,3 72.951,3 C74.805,3 76.41,3.646 77.763,4.937 C78.838,4.708 80.034,4.249 81.326,3.541 C81.408,3.489 81.514,3.461 81.597,3.461 C81.891,3.461 82.143,3.711 82.143,4.002 C82.143,4.543 81.331,5.912 80.794,6.523 C80.948,6.47 81.577,6.243 82.042,6.068 C82.265,5.98 82.396,5.954 82.45,5.954 C82.743,5.954 82.995,6.212 82.995,6.495 C83,6.623 82.967,6.718 82.918,6.806 L82.918,6.806 Z" id="Shape"></path>
                </g>
            </g>
        </g>
    </g>
</svg>