<?xml version="1.0" encoding="UTF-8"?>
<svg width="63px" height="63px" viewBox="0 0 63 63" version="1.1" xmlns="http://www.w3.org/2000/svg" xmlns:xlink="http://www.w3.org/1999/xlink">
    <!-- Generator: Sketch 46.2 (44496) - http://www.bohemiancoding.com/sketch -->
    <title>design</title>
    <desc>Created with Sketch.</desc>
    <defs></defs>
    <g id="01.00.01-MobileMenu-Active" stroke="none" stroke-width="1" fill="none" fill-rule="evenodd">
        <g id="M_01.00.01-ServerSideUp_Homepage-MobileMenu-Active" transform="translate(-229.000000, -209.000000)">
            <g id="Menu" transform="translate(59.000000, 0.000000)">
                <g id="design" transform="translate(170.000000, 209.000000)">
                    <circle id="Oval-2-Copy" fill="#9B9B9B" cx="31.5" cy="31.5" r="31.5"></circle>
                    <path d="M17.5357669,19.3566869 L17.5357669,46.4642331 L44.6433131,46.4642331 L44.6433131,26.9055492 L48.17908,23.3697823 L48.17908,48.2321165 C48.17908,49.2103454 47.3876576,50 46.4111966,50 L15.7678835,50 C14.7920118,50 14,49.2103454 14,48.2321165 L14,17.5888034 C14,16.6105746 14.7920118,15.82092 15.7678835,15.82092 L40.7286299,15.82092 L37.192863,19.3566869 L17.5357669,19.3566869 Z M44.4794893,24.4481912 L29.5479457,39.3514487 L24.5707644,34.3836962 L39.5023081,19.4804387 L44.4794893,24.4481912 Z M23.3167458,35.6212146 L28.2945163,40.5889671 L21.6596497,42.2448846 L23.3167458,35.6212146 Z M49.4566705,19.4804387 L45.7234899,23.2047798 L40.7463087,18.2370273 L44.4794893,14.5126862 C45.1666066,13.8291046 46.2809625,13.8291046 46.9680799,14.5126862 L49.4566705,16.9995089 C50.1437879,17.6830905 50.1437879,18.7968571 49.4566705,19.4804387 L49.4566705,19.4804387 Z" id="Fill-70" fill="#333333"></path>
                </g>
            </g>
        </g>
    </g>
</svg>