<?xml version="1.0" encoding="UTF-8" standalone="no"?>
<svg width="63px" height="63px" viewBox="0 0 63 63" version="1.1" xmlns="http://www.w3.org/2000/svg" xmlns:xlink="http://www.w3.org/1999/xlink">
    <!-- Generator: Sketch 39.1 (31720) - http://www.bohemiancoding.com/sketch -->
    <title>Group 2</title>
    <desc>Created with Sketch.</desc>
    <defs></defs>
    <g id="01.00.01-MobileMenu-Active" stroke="none" stroke-width="1" fill="none" fill-rule="evenodd">
        <g id="M_01.00.01-ServerSideUp_Homepage-MobileMenu-Active" transform="translate(-99.000000, -89.000000)">
            <g id="Menu" transform="translate(59.000000, 0.000000)">
                <g id="Group-2" transform="translate(40.000000, 89.000000)">
                    <circle id="Oval-2" fill="#9B9B9B" cx="31.5" cy="31.5" r="31.5"></circle>
                    <path d="M42.667714,40.5331084 C37.9661535,45.2323914 30.6082455,45.6347533 25.4375158,41.7629692 L17.8632434,49.3395192 C16.9795656,50.2201603 15.5470055,50.2201603 14.6633277,49.3395192 C13.7788908,48.4512864 13.7788908,47.0164488 14.6633277,46.1358077 L22.236841,38.5592577 C18.3635386,33.3892872 18.7628638,26.0328975 23.4644243,21.3336145 L27.9989667,16.7937579 L31.1988823,19.9974694 L36.5335934,14.6604808 C37.4172712,13.7798397 38.8498313,13.7798397 39.7342682,14.6604808 C40.617946,15.5487136 40.617946,16.9835512 39.7342682,17.8641923 L34.3995571,23.2011809 L40.8009068,29.6010122 L46.1348587,24.2640236 C47.0192957,23.3833825 48.4518558,23.3833825 49.3355335,24.2640236 C50.2192113,25.1522564 50.2192113,26.5795023 49.3355335,27.4677351 L44.0015816,32.797132 L47.2022564,36.0008435 L42.667714,40.5331084" id="Fill-60" fill="#333333"></path>
                </g>
            </g>
        </g>
    </g>
</svg>