<?xml version="1.0" encoding="UTF-8" standalone="no"?>
<svg width="205px" height="43px" viewBox="0 0 205 43" version="1.1" xmlns="http://www.w3.org/2000/svg" xmlns:xlink="http://www.w3.org/1999/xlink">
    <!-- Generator: Sketch 39.1 (31720) - http://www.bohemiancoding.com/sketch -->
    <title>Group</title>
    <desc>Created with Sketch.</desc>
    <defs></defs>
    <g id="01.00.01-MobileMenu-Active" stroke="none" stroke-width="1" fill="none" fill-rule="evenodd">
        <g id="M_01.00.01-ServerSideUp_Homepage-MobileMenu-Active" transform="translate(-90.000000, -22.000000)">
            <g id="Menu" transform="translate(59.000000, 0.000000)">
                <g id="ServerSideUp-BW" transform="translate(31.000000, 22.000000)">
                    <g id="Group">
                        <g id="Layer_1" transform="translate(0.000000, 8.155172)">
                            <g id="Up" transform="translate(148.522963, 1.112069)" fill="#64DD17">
                                <path d="M14.7226628,17.8487069 C13.3522514,18.9978448 11.2781153,19.5724138 8.51877345,19.5724138 C2.90749442,19.5724138 0.111114436,17.0702586 0.111114436,12.0844828 L0.111114436,0.166810345 L1.98154078,0.166810345 L1.98154078,12.0844828 C1.98154078,15.9396552 4.16679136,17.8672414 8.51877345,17.8672414 C12.8892746,17.8672414 15.0560061,15.9767241 15.0560061,12.1956897 L15.0560061,0.166810345 L16.9264325,0.166810345 L16.9264325,12.1586207 C16.9264325,14.7534483 16.1856695,16.6439655 14.7226628,17.8487069 L14.7226628,17.8487069 Z" id="Shape"></path>
                                <path d="M33.1676592,17.8301724 C31.8898432,19.2758621 30.0749741,19.9801724 27.7230518,19.9801724 C25.4266868,19.9801724 23.6118177,19.2387931 22.3154826,17.7375 L22.3154826,24.150431 L20.4450563,24.150431 L20.4450563,5.52327586 L22.3154826,5.52327586 L22.3154826,7.45086207 C23.6118177,5.94956897 25.4081678,5.20818966 27.7045328,5.20818966 C30.0194169,5.20818966 31.834286,5.9125 33.1491402,7.30258621 C34.371399,8.61853448 34.9825284,10.3793103 34.9825284,12.5478448 C34.9825284,14.7534483 34.371399,16.5142241 33.1676592,17.8301724 L33.1676592,17.8301724 Z M27.8712044,6.93189655 C26.1674497,6.93189655 24.8155574,7.45086207 23.8155275,8.47025862 C22.8154976,9.50818966 22.3154826,10.8426724 22.3154826,12.4737069 C22.3154826,16.3103448 24.1488708,18.237931 27.8341663,18.237931 C29.537921,18.237931 30.8527751,17.6818966 31.7972478,16.5883621 C32.6861633,15.5689655 33.1306211,14.2344828 33.1306211,12.5663793 C33.1306211,10.8612069 32.6676443,9.50818966 31.7231716,8.47025862 C30.7972179,7.45086207 29.5008828,6.93189655 27.8712044,6.93189655 L27.8712044,6.93189655 Z" id="Shape"></path>
                            </g>
                            <g id="ServerSide" fill="#FFFFFF">
                                <path d="M2.09265522,7.11724138 C2.09265522,7.65474138 2.27784594,8.09956897 2.66674647,8.47025862 C3.01860885,8.82241379 3.4630666,9.00775862 4.00011971,9.00775862 L9.03730748,9.00775862 C9.59287966,9.00775862 10.0743756,9.10043103 10.5003142,9.28577586 C10.9262529,9.47112069 11.3336725,9.74913793 11.7410921,10.1568966 C12.1485117,10.5646552 12.4262978,10.9724138 12.5929694,11.3987069 C12.7596411,11.825 12.8522365,12.325431 12.8522365,12.8814655 L12.8522365,16.5883621 C12.8522365,17.162931 12.7781602,17.6448276 12.6114885,18.0711207 C12.4448169,18.4974138 12.1670308,18.9051724 11.7781302,19.312931 C11.3892297,19.7021552 10.963291,19.9987069 10.5373524,20.1655172 C10.1114137,20.3323276 9.62991781,20.425 9.07434563,20.425 L3.85196712,20.425 C3.29639494,20.425 2.81489905,20.3323276 2.38896038,20.1655172 C1.96302171,19.9987069 1.55560211,19.7206897 1.14818251,19.3314655 C0.759281981,18.9422414 0.48149589,18.5344828 0.314824236,18.1081897 C0.148152582,17.6818966 0.0740762908,17.1814655 0.0740762908,16.625431 C0.0740762908,16.3659483 0.166671654,16.125 0.351862382,15.9396552 C0.537053109,15.7543103 0.759281981,15.6616379 1.03706807,15.6616379 C1.29633509,15.6616379 1.51856396,15.7543103 1.68523562,15.9396552 C1.85190727,16.125 1.94450263,16.3474138 1.94450263,16.625431 C1.94450263,17.162931 2.12969336,17.6077586 2.51859389,17.9784483 C2.88897534,18.3491379 3.37047123,18.5530172 3.92604341,18.5530172 L8.96323119,18.5530172 C9.53732245,18.5530172 10.0002993,18.3676724 10.3706807,17.9784483 C10.7410622,17.6077586 10.944772,17.1443966 10.944772,16.6068966 L10.944772,12.8814655 C10.944772,12.3439655 10.7595812,11.8991379 10.3706807,11.5099138 C10.1669709,11.3060345 9.96326112,11.1577586 9.75955132,11.0650862 C9.55584152,10.9724138 9.31509357,10.9353448 9.03730748,10.9353448 L3.98160063,10.9353448 C3.42602845,10.9353448 2.94453256,10.8426724 2.51859389,10.6758621 C2.09265522,10.5090517 1.68523562,10.2310345 1.27781602,9.82327586 C0.88891549,9.43405172 0.611129399,9.00775862 0.444457745,8.58146552 C0.277786091,8.15517241 0.2037098,7.65474138 0.2037098,7.0987069 L0.2037098,3.54008621 C0.2037098,3.09525862 0.296305163,2.65043103 0.500014963,2.24267241 C0.703724763,1.83491379 0.944472708,1.44568966 1.25929694,1.13060345 C1.57412118,0.796982759 1.92598356,0.5375 2.31488409,0.352155172 C2.70378462,0.166810345 3.09268514,0.074137931 3.48158567,0.074137931 L8.92619305,0.074137931 C9.48176523,0.074137931 9.96326112,0.166810345 10.3891998,0.33362069 C10.8151385,0.500431034 11.2225581,0.778448276 11.6299777,1.1862069 C12.0373973,1.59396552 12.2966643,2.00172414 12.4633359,2.42801724 C12.6300076,2.85431034 12.7040839,3.35474138 12.7040839,3.91077586 C12.7040839,4.17025862 12.6114885,4.4112069 12.4262978,4.59655172 C12.2411071,4.78189655 12.0188782,4.87456897 11.7410921,4.87456897 C11.4818251,4.87456897 11.2595962,4.78189655 11.0929246,4.59655172 C10.9262529,4.4112069 10.8336575,4.1887931 10.8336575,3.91077586 C10.8336575,3.37327586 10.6484668,2.92844828 10.2595663,2.55775862 C9.87066575,2.16853448 9.40768894,1.96465517 8.90767397,1.96465517 L4.074196,1.96465517 C3.51862382,1.96465517 3.055647,2.15 2.66674647,2.52068966 C2.27784594,2.89137931 2.09265522,3.35474138 2.09265522,3.89224138 L2.09265522,7.11724138 L2.09265522,7.11724138 Z" id="Shape"></path>
                                <path d="M29.3712493,13.2892241 C29.3712493,13.5487069 29.278654,13.7711207 29.1119823,13.9564655 C28.9453106,14.1418103 28.7230818,14.2159483 28.4267766,14.2159483 L19.2968738,14.2159483 L19.2968738,16.4771552 C19.2968738,17.0146552 19.4820645,17.4594828 19.8524459,17.8301724 C20.2228274,18.2008621 20.6672851,18.3862069 21.2043383,18.3862069 L27.241556,18.3862069 C27.500823,18.3862069 27.7415709,18.4788793 27.9267616,18.6456897 C28.1119524,18.8310345 28.2045477,19.0349138 28.2045477,19.2943966 C28.2045477,19.5538793 28.1119524,19.7762931 27.9267616,19.9616379 C27.7415709,20.1469828 27.519342,20.2396552 27.241556,20.2396552 L21.2043383,20.2396552 C20.6672851,20.2396552 20.1857893,20.1469828 19.7228124,19.9616379 C19.2598356,19.7762931 18.852416,19.5168103 18.5190727,19.1646552 C18.1857294,18.8310345 17.9079433,18.4232759 17.7227526,17.9599138 C17.5375619,17.4965517 17.4449665,16.9961207 17.4449665,16.4400862 L17.4449665,9.71206897 C17.4449665,9.26724138 17.5375619,8.82241379 17.7412717,8.41465517 C17.9449815,8.00689655 18.1857294,7.6362069 18.5005536,7.30258621 C18.8153779,6.96896552 19.1672403,6.70948276 19.5376217,6.52413793 C19.9265222,6.3387931 20.3154228,6.24612069 20.7043233,6.24612069 L25.7415111,6.24612069 C26.1859688,6.24612069 26.6304266,6.3387931 27.0748843,6.54267241 C27.500823,6.74655172 27.8897235,7.00603448 28.2415859,7.32112069 C28.5749292,7.6362069 28.8527153,8.02543103 29.0564251,8.45172414 C29.2601349,8.87801724 29.3712493,9.32284483 29.3712493,9.7862069 L29.3712493,13.2892241 L29.3712493,13.2892241 Z M19.3153928,12.3625 L27.500823,12.3625 L27.500823,9.7862069 C27.500823,9.60086207 27.4452658,9.39698276 27.3526704,9.19310345 C27.241556,8.98922414 27.1119224,8.80387931 26.9637699,8.65560345 C26.7970982,8.4887931 26.6119075,8.35905172 26.4081977,8.26637931 C26.2044879,8.1737069 26.0007781,8.11810345 25.7785492,8.11810345 L21.0376666,8.11810345 C20.8339568,8.11810345 20.630247,8.1737069 20.4080181,8.26637931 C20.2043083,8.35905172 20.0191176,8.4887931 19.8524459,8.65560345 C19.6857743,8.82241379 19.5561408,9.00775862 19.4635454,9.19310345 C19.352431,9.39698276 19.3153928,9.58232759 19.3153928,9.7862069 L19.3153928,12.3625 L19.3153928,12.3625 Z" id="Shape"></path>
                                <path d="M38.2789233,8.08103448 C37.7233511,8.08103448 37.2974124,8.21077586 36.9825882,8.45172414 C36.667764,8.69267241 36.4084969,8.97068966 36.2233062,9.26724138 C36.0195964,9.60086207 35.8714438,9.99008621 35.7788485,10.4349138 L35.7788485,19.3314655 C35.7788485,19.5909483 35.6862531,19.8133621 35.5195815,19.9987069 C35.3529098,20.1840517 35.1306809,20.2767241 34.8714139,20.2767241 C34.6121469,20.2767241 34.371399,20.1840517 34.1862082,19.9987069 C34.0010175,19.8133621 33.9084221,19.5909483 33.9084221,19.312931 L33.9084221,7.30258621 C33.9084221,7.04310345 34.0010175,6.80215517 34.2047273,6.61681034 C34.4084371,6.43146552 34.630666,6.3387931 34.889933,6.3387931 C35.1306809,6.3387931 35.3343907,6.43146552 35.5195815,6.63534483 C35.7047722,6.83922414 35.7788485,7.04310345 35.7788485,7.24698276 L35.7788485,7.4137931 C35.8899629,7.30258621 36.0381155,7.17284483 36.2233062,7.02456897 C36.4084969,6.8762931 36.6122067,6.74655172 36.8344356,6.63534483 C37.0566645,6.52413793 37.2974124,6.41293103 37.5751985,6.3387931 C37.8344655,6.24612069 38.1122516,6.20905172 38.3715187,6.20905172 L40.8345553,6.20905172 C41.0938223,6.20905172 41.3345703,6.30172414 41.519761,6.48706897 C41.7049517,6.67241379 41.7975471,6.89482759 41.7975471,7.15431034 C41.7975471,7.43232759 41.7049517,7.6362069 41.519761,7.82155172 C41.3345703,7.98836207 41.1123414,8.08103448 40.8345553,8.08103448 L38.2789233,8.08103448 L38.2789233,8.08103448 Z" id="Shape"></path>
                                <path d="M52.8349144,19.7392241 C52.7423191,19.9431034 52.6126856,20.0913793 52.4460139,20.1655172 C52.2793423,20.2396552 52.0941515,20.2767241 51.8904417,20.2767241 C51.6682129,20.2767241 51.4645031,20.2396552 51.2607933,20.1469828 C51.0756025,20.0543103 50.92745,19.924569 50.8348546,19.7392241 L45.593957,7.76594828 C45.5383998,7.6362069 45.5013617,7.48793103 45.5013617,7.33965517 C45.5013617,7.0987069 45.5754379,6.8762931 45.7421096,6.67241379 C45.9087812,6.46853448 46.112491,6.37586207 46.3717581,6.37586207 C46.5569488,6.37586207 46.7421395,6.43146552 46.9088112,6.52413793 C47.0754828,6.61681034 47.2051163,6.76508621 47.2977117,6.95043103 L51.7978464,17.237069 L56.297981,6.95043103 C56.3905764,6.76508621 56.5202099,6.61681034 56.6868816,6.52413793 C56.8535532,6.43146552 57.0387439,6.37586207 57.2239347,6.37586207 C57.4832017,6.37586207 57.7054306,6.46853448 57.8535831,6.67241379 C58.0202548,6.8762931 58.0943311,7.0987069 58.0943311,7.33965517 C58.0943311,7.48793103 58.0572929,7.6362069 58.0017357,7.76594828 L52.8349144,19.7392241 L52.8349144,19.7392241 Z" id="Shape"></path>
                                <path d="M74.1503671,13.2892241 C74.1503671,13.5487069 74.0577718,13.7711207 73.8911001,13.9564655 C73.7244285,14.1418103 73.5021996,14.2159483 73.2058944,14.2159483 L64.0759916,14.2159483 L64.0759916,16.4771552 C64.0759916,17.0146552 64.2611823,17.4594828 64.6315638,17.8301724 C65.0019452,18.2008621 65.446403,18.3862069 65.9834561,18.3862069 L72.0206738,18.3862069 C72.2799408,18.3862069 72.5206887,18.4788793 72.7058795,18.6456897 C72.8910702,18.8310345 72.9836656,19.0349138 72.9836656,19.2943966 C72.9836656,19.5538793 72.8910702,19.7762931 72.7058795,19.9616379 C72.5206887,20.1469828 72.2984599,20.2396552 72.0206738,20.2396552 L65.9834561,20.2396552 C65.446403,20.2396552 64.9649071,20.1469828 64.5019303,19.9616379 C64.0389534,19.7762931 63.6315338,19.5168103 63.2981905,19.1646552 C62.9648472,18.8310345 62.6870611,18.4232759 62.5018704,17.9599138 C62.3166797,17.4965517 62.2240843,16.9961207 62.2240843,16.4400862 L62.2240843,9.71206897 C62.2240843,9.26724138 62.3166797,8.82241379 62.5203895,8.41465517 C62.7240993,8.00689655 62.9648472,7.6362069 63.2796715,7.30258621 C63.5944957,6.96896552 63.9463581,6.70948276 64.3167395,6.52413793 C64.7056401,6.3387931 65.0945406,6.24612069 65.4834411,6.24612069 L70.5206289,6.24612069 C70.9650866,6.24612069 71.4095444,6.3387931 71.8540021,6.54267241 C72.2799408,6.74655172 72.6688413,7.00603448 73.0207037,7.32112069 C73.354047,7.6362069 73.6318331,8.02543103 73.8355429,8.45172414 C74.0392527,8.87801724 74.1503671,9.32284483 74.1503671,9.7862069 L74.1503671,13.2892241 L74.1503671,13.2892241 Z M64.0759916,12.3625 L72.2614217,12.3625 L72.2614217,9.7862069 C72.2614217,9.60086207 72.2058645,9.39698276 72.1132691,9.19310345 C72.0021547,8.98922414 71.8725212,8.80387931 71.7243686,8.65560345 C71.557697,8.4887931 71.3725062,8.35905172 71.1687964,8.26637931 C70.9650866,8.1737069 70.7613768,8.11810345 70.539148,8.11810345 L65.7982653,8.11810345 C65.5945555,8.11810345 65.3908457,8.1737069 65.1686169,8.26637931 C64.9649071,8.35905172 64.7797163,8.4887931 64.6130447,8.65560345 C64.446373,8.82241379 64.3167395,9.00775862 64.2241442,9.19310345 C64.1130297,9.39698276 64.0759916,9.58232759 64.0759916,9.7862069 L64.0759916,12.3625 L64.0759916,12.3625 Z" id="Shape"></path>
                                <path d="M83.039522,8.08103448 C82.4839499,8.08103448 82.0580112,8.21077586 81.7431869,8.45172414 C81.4283627,8.69267241 81.1690957,8.97068966 80.983905,9.26724138 C80.7801952,9.60086207 80.6320426,9.99008621 80.5394472,10.4349138 L80.5394472,19.3314655 C80.5394472,19.5909483 80.4468519,19.8133621 80.2801802,19.9987069 C80.1135085,20.1840517 79.8912797,20.2767241 79.6320127,20.2767241 C79.3727456,20.2767241 79.1319977,20.1840517 78.946807,19.9987069 C78.7616162,19.8133621 78.6690209,19.5909483 78.6690209,19.312931 L78.6690209,7.30258621 C78.6690209,7.04310345 78.7616162,6.80215517 78.965326,6.61681034 C79.1690358,6.43146552 79.3912647,6.3387931 79.6505317,6.3387931 C79.8912797,6.3387931 80.0949895,6.43146552 80.2801802,6.63534483 C80.4653709,6.83922414 80.5394472,7.04310345 80.5394472,7.24698276 L80.5394472,7.4137931 C80.6505617,7.30258621 80.7987142,7.17284483 80.983905,7.02456897 C81.1690957,6.8762931 81.3728055,6.74655172 81.5950344,6.63534483 C81.8172632,6.52413793 82.0580112,6.41293103 82.3357973,6.3387931 C82.5950643,6.24612069 82.8728504,6.20905172 83.1321174,6.20905172 L85.5581159,6.20905172 C85.8173829,6.20905172 86.0581309,6.30172414 86.2433216,6.48706897 C86.4285123,6.67241379 86.5211077,6.89482759 86.5211077,7.15431034 C86.5211077,7.43232759 86.4285123,7.6362069 86.2433216,7.82155172 C86.0581309,7.98836207 85.835902,8.08103448 85.5581159,8.08103448 L83.039522,8.08103448 L83.039522,8.08103448 Z" id="Shape"></path>
                                <path d="M93.1509357,7.11724138 C93.1509357,7.65474138 93.3361265,8.09956897 93.725027,8.47025862 C94.0768894,8.82241379 94.5213471,9.00775862 95.0584002,9.00775862 L100.095588,9.00775862 C100.65116,9.00775862 101.132656,9.10043103 101.558595,9.28577586 C101.984533,9.47112069 102.391953,9.74913793 102.799373,10.1568966 C103.206792,10.5646552 103.484578,10.9724138 103.65125,11.3987069 C103.817922,11.825 103.910517,12.325431 103.910517,12.8814655 L103.910517,16.5883621 C103.910517,17.162931 103.836441,17.6448276 103.669769,18.0711207 C103.503097,18.4974138 103.225311,18.9051724 102.836411,19.312931 C102.44751,19.7021552 102.021572,19.9987069 101.595633,20.1655172 C101.169694,20.3323276 100.688198,20.425 100.132626,20.425 L94.9102476,20.425 C94.3546755,20.425 93.8731796,20.3323276 93.4472409,20.1655172 C93.0213022,19.9987069 92.6138826,19.7206897 92.206463,19.3314655 C91.8175625,18.9422414 91.5397764,18.5344828 91.3731048,18.1081897 C91.2064331,17.6818966 91.1323568,17.1814655 91.1323568,16.625431 C91.1323568,16.3659483 91.2249522,16.125 91.4101429,15.9396552 C91.5953336,15.7543103 91.8175625,15.6616379 92.0953486,15.6616379 C92.3546156,15.6616379 92.5768445,15.7543103 92.7435161,15.9396552 C92.9101878,16.125 93.0027832,16.3474138 93.0027832,16.625431 C93.0027832,17.162931 93.1879739,17.6077586 93.5768744,17.9784483 C93.9472559,18.3491379 94.4287518,18.5530172 94.9843239,18.5530172 L100.021512,18.5530172 C100.595603,18.5530172 101.05858,18.3676724 101.44748,17.9784483 C101.817862,17.6077586 102.021572,17.1443966 102.021572,16.6068966 L102.021572,12.8814655 C102.021572,12.3439655 101.836381,11.8991379 101.44748,11.5099138 C101.243771,11.3060345 101.040061,11.1577586 100.836351,11.0650862 C100.632641,10.9724138 100.391893,10.9353448 100.114107,10.9353448 L95.0398812,10.9353448 C94.484309,10.9353448 94.0028131,10.8426724 93.5768744,10.6758621 C93.1509357,10.5090517 92.7435161,10.2310345 92.3360965,9.82327586 C91.947196,9.43405172 91.6694099,9.00775862 91.5027383,8.58146552 C91.3360666,8.15517241 91.2619903,7.65474138 91.2619903,7.0987069 L91.2619903,3.54008621 C91.2619903,3.09525862 91.3545857,2.65043103 91.5582955,2.24267241 C91.7620053,1.83491379 92.0027532,1.44568966 92.3175775,1.13060345 C92.6324017,0.796982759 92.9842641,0.5375 93.3731646,0.352155172 C93.7620651,0.166810345 94.1509657,0.074137931 94.5398662,0.074137931 L100.002993,0.074137931 C100.558565,0.074137931 101.040061,0.166810345 101.465999,0.33362069 C101.891938,0.500431034 102.299358,0.778448276 102.706777,1.1862069 C103.114197,1.59396552 103.373464,2.00172414 103.540136,2.42801724 C103.706807,2.85431034 103.780883,3.35474138 103.780883,3.91077586 C103.780883,4.17025862 103.688288,4.4112069 103.503097,4.59655172 C103.317907,4.78189655 103.095678,4.87456897 102.817892,4.87456897 C102.558625,4.87456897 102.336396,4.78189655 102.169724,4.59655172 C102.003052,4.4112069 101.910457,4.1887931 101.910457,3.91077586 C101.910457,3.37327586 101.725266,2.92844828 101.336366,2.55775862 C100.947465,2.16853448 100.484489,1.96465517 99.9844736,1.96465517 L95.1324765,1.96465517 C94.5769043,1.96465517 94.1139275,2.15 93.725027,2.52068966 C93.3361265,2.89137931 93.1509357,3.35474138 93.1509357,3.89224138 L93.1509357,7.11724138 L93.1509357,7.11724138 Z" id="Shape"></path>
                                <path d="M109.706987,2.22413793 C110.021811,2.22413793 110.299597,2.33534483 110.521826,2.55775862 C110.744055,2.78017241 110.855169,3.07672414 110.855169,3.41034483 C110.855169,3.72543103 110.744055,4.00344828 110.521826,4.22586207 C110.299597,4.44827586 110.021811,4.55948276 109.706987,4.55948276 C109.392163,4.55948276 109.114376,4.44827586 108.873628,4.22586207 C108.632881,4.00344828 108.521766,3.72543103 108.521766,3.41034483 C108.521766,3.07672414 108.632881,2.78017241 108.855109,2.55775862 C109.077338,2.35387931 109.355124,2.22413793 109.706987,2.22413793 L109.706987,2.22413793 Z M110.614421,19.312931 C110.614421,19.5724138 110.521826,19.8133621 110.336635,19.9987069 C110.151444,20.1840517 109.929216,20.2767241 109.669949,20.2767241 C109.410682,20.2767241 109.188453,20.1840517 109.003262,19.9987069 C108.818071,19.8133621 108.725476,19.5909483 108.725476,19.312931 L108.725476,7.33965517 C108.725476,7.08017241 108.818071,6.83922414 109.003262,6.65387931 C109.188453,6.46853448 109.410682,6.37586207 109.669949,6.37586207 C109.929216,6.37586207 110.151444,6.46853448 110.336635,6.65387931 C110.521826,6.83922414 110.614421,7.06163793 110.614421,7.33965517 L110.614421,19.312931 L110.614421,19.312931 Z" id="Shape"></path>
                                <path d="M115.484937,10.3051724 C115.484937,9.71206897 115.577533,9.17456897 115.781243,8.67413793 C115.984952,8.1737069 116.244219,7.74741379 116.596082,7.39525862 C116.947944,7.04310345 117.355364,6.76508621 117.83686,6.5612069 C118.299836,6.35732759 118.818371,6.26465517 119.336905,6.26465517 L123.077757,6.26465517 C123.337024,6.26465517 123.61481,6.30172414 123.874077,6.39439655 C124.133344,6.48706897 124.392611,6.57974138 124.61484,6.69094828 C124.837069,6.80215517 125.040779,6.93189655 125.22597,7.06163793 C125.41116,7.20991379 125.559313,7.32112069 125.670427,7.43232759 L125.670427,1.09353448 C125.670427,0.889655172 125.763023,0.685775862 125.929694,0.481896552 C126.096366,0.278017241 126.300076,0.185344828 126.559343,0.185344828 C126.81861,0.185344828 127.059358,0.278017241 127.244549,0.463362069 C127.448258,0.648706897 127.540854,0.87112069 127.540854,1.14913793 L127.540854,19.2943966 C127.540854,19.5538793 127.448258,19.7948276 127.244549,19.9801724 C127.040839,20.1655172 126.81861,20.2581897 126.559343,20.2581897 C126.318595,20.2581897 126.114885,20.1655172 125.929694,19.9616379 C125.763023,19.7577586 125.670427,19.5538793 125.670427,19.35 L125.670427,19.2017241 C125.559313,19.312931 125.41116,19.4426724 125.22597,19.5909483 C125.040779,19.7392241 124.837069,19.8689655 124.61484,19.9801724 C124.392611,20.0913793 124.133344,20.1840517 123.874077,20.2767241 C123.61481,20.3693966 123.337024,20.4064655 123.077757,20.4064655 L119.336905,20.4064655 C118.799851,20.4064655 118.299836,20.3137931 117.83686,20.1099138 C117.355364,19.9060345 116.947944,19.6280172 116.596082,19.2758621 C116.244219,18.9237069 115.966433,18.4974138 115.781243,17.9969828 C115.577533,17.5150862 115.484937,16.9590517 115.484937,16.3474138 L115.484937,10.3051724 L115.484937,10.3051724 Z M125.651908,9.97155172 C125.651908,9.71206897 125.577832,9.45258621 125.41116,9.23017241 C125.244489,9.00775862 125.059298,8.80387931 124.81855,8.63706897 C124.577802,8.47025862 124.318535,8.34051724 124.02223,8.24784483 C123.725925,8.15517241 123.448139,8.09956897 123.188872,8.09956897 L119.336905,8.13663793 C118.781332,8.13663793 118.318356,8.32198276 117.929455,8.69267241 C117.540554,9.06336207 117.355364,9.52672414 117.355364,10.0642241 L117.355364,16.6068966 C117.355364,17.162931 117.540554,17.6077586 117.929455,17.9784483 C118.318356,18.3491379 118.781332,18.5344828 119.336905,18.5344828 L123.188872,18.5344828 C123.448139,18.5344828 123.725925,18.4788793 124.02223,18.3862069 C124.318535,18.2935345 124.577802,18.1637931 124.81855,17.9969828 C125.059298,17.8301724 125.244489,17.6262931 125.41116,17.4038793 C125.577832,17.1814655 125.651908,16.9405172 125.651908,16.6625 L125.651908,9.97155172 L125.651908,9.97155172 Z" id="Shape"></path>
                                <path d="M144.078386,13.2892241 C144.078386,13.5487069 143.98579,13.7711207 143.819119,13.9564655 C143.652447,14.1418103 143.430218,14.2159483 143.133913,14.2159483 L134.00401,14.2159483 L134.00401,16.4771552 C134.00401,17.0146552 134.189201,17.4594828 134.559582,17.8301724 C134.929964,18.2008621 135.374422,18.3862069 135.911475,18.3862069 L141.948692,18.3862069 C142.207959,18.3862069 142.448707,18.4788793 142.633898,18.6456897 C142.819089,18.8310345 142.911684,19.0349138 142.911684,19.2943966 C142.911684,19.5538793 142.819089,19.7762931 142.633898,19.9616379 C142.448707,20.1469828 142.226478,20.2396552 141.948692,20.2396552 L135.911475,20.2396552 C135.374422,20.2396552 134.892926,20.1469828 134.429949,19.9616379 C133.966972,19.7762931 133.559552,19.5168103 133.226209,19.1646552 C132.892866,18.8310345 132.61508,18.4232759 132.429889,17.9599138 C132.244698,17.4965517 132.152103,16.9961207 132.152103,16.4400862 L132.152103,9.71206897 C132.152103,9.26724138 132.244698,8.82241379 132.448408,8.41465517 C132.652118,8.00689655 132.892866,7.6362069 133.20769,7.30258621 C133.522514,6.96896552 133.874377,6.70948276 134.244758,6.52413793 C134.633659,6.3387931 135.022559,6.24612069 135.41146,6.24612069 L140.448647,6.24612069 C140.893105,6.24612069 141.337563,6.3387931 141.782021,6.54267241 C142.207959,6.74655172 142.59686,7.00603448 142.948722,7.32112069 C143.300585,7.6362069 143.559852,8.02543103 143.763561,8.45172414 C143.967271,8.87801724 144.078386,9.32284483 144.078386,9.7862069 L144.078386,13.2892241 L144.078386,13.2892241 Z M134.00401,12.3625 L142.18944,12.3625 L142.18944,9.7862069 C142.18944,9.60086207 142.133883,9.39698276 142.041288,9.19310345 C141.930173,8.98922414 141.80054,8.80387931 141.652387,8.65560345 C141.485716,8.4887931 141.300525,8.35905172 141.096815,8.26637931 C140.893105,8.1737069 140.689395,8.11810345 140.467167,8.11810345 L135.744803,8.11810345 C135.541093,8.11810345 135.337383,8.1737069 135.115154,8.26637931 C134.911445,8.35905172 134.726254,8.4887931 134.559582,8.65560345 C134.392911,8.82241379 134.263277,9.00775862 134.170682,9.19310345 C134.059567,9.39698276 134.022529,9.58232759 134.022529,9.7862069 L134.022529,12.3625 L134.00401,12.3625 Z" id="Shape"></path>
                            </g>
                        </g>
                        <g id="SSU-Square" transform="translate(185.931490, 0.000000)" fill="#9B9B9B">
                            <g id="Group">
                                <g>
                                    <ellipse id="Oval" cx="9.40768894" cy="13.9193966" rx="2.61118925" ry="2.61336207"></ellipse>
                                    <ellipse id="Oval" cx="9.40768894" cy="21.5185345" rx="2.61118925" ry="2.61336207"></ellipse>
                                    <polyline id="Shape" points="0.0555572181 9.47112069 9.44472708 0.0926724138 18.8338969 9.50818966 16.7782799 11.5469828 9.40768894 4.31853448 2.14821243 11.5840517"></polyline>
                                    <ellipse id="Oval" cx="9.48176523" cy="29.0064655" rx="2.61118925" ry="2.61336207"></ellipse>
                                    <polyline id="Shape" points="18.8338969 33.4547414 9.44472708 42.8331897 0.0555572181 33.4176724 2.11117429 31.3788793 9.48176523 38.6073276 16.7412417 31.3603448"></polyline>
                                </g>
                            </g>
                        </g>
                    </g>
                </g>
            </g>
        </g>
    </g>
</svg>